<?xml version="1.0" encoding="UTF-8" standalone="no"?>
<svg
   xmlns:dc="http://purl.org/dc/elements/1.1/"
   xmlns:cc="http://creativecommons.org/ns#"
   xmlns:rdf="http://www.w3.org/1999/02/22-rdf-syntax-ns#"
   xmlns:svg="http://www.w3.org/2000/svg"
   xmlns="http://www.w3.org/2000/svg"
   xmlns:sodipodi="http://sodipodi.sourceforge.net/DTD/sodipodi-0.dtd"
   xmlns:inkscape="http://www.inkscape.org/namespaces/inkscape"
   width="236"
   height="57"
   id="svg2"
   version="1.1"
   inkscape:version="0.48.5 r10040"
   sodipodi:docname="monkeylearn.svg"
   inkscape:export-filename="/home/eudoxia/backup/work/daywatch_platform/assets/img/logos/monkeylearn.png"
   inkscape:export-xdpi="137.28999"
   inkscape:export-ydpi="137.28999">
  <metadata
     id="metadata24">
    <rdf:RDF>
      <cc:Work
         rdf:about="">
        <dc:format>image/svg+xml</dc:format>
        <dc:type
           rdf:resource="http://purl.org/dc/dcmitype/StillImage" />
        <dc:title></dc:title>
      </cc:Work>
    </rdf:RDF>
  </metadata>
  <defs
     id="defs22" />
  <sodipodi:namedview
     pagecolor="#ffffff"
     bordercolor="#666666"
     borderopacity="1"
     objecttolerance="10"
     gridtolerance="10"
     guidetolerance="10"
     inkscape:pageopacity="0"
     inkscape:pageshadow="2"
     inkscape:window-width="1870"
     inkscape:window-height="1030"
     id="namedview20"
     showgrid="false"
     inkscape:zoom="9.8983051"
     inkscape:cx="71.628075"
     inkscape:cy="9.1542718"
     inkscape:window-x="25"
     inkscape:window-y="25"
     inkscape:window-maximized="0"
     inkscape:current-layer="svg2" />
  <g
     fill="#fff"
     id="g4"
     style="fill:#003c55;fill-opacity:1">
    <path
       d="M93.1 36.9h-3.3c-.2 0-.4-.2-.4-.5v-10.5c0-.2-.1-.2-.1-.2-.1 0-.1.1-.2.2l-2.3 4.1c-.2.3-.4.4-.8.4h-2c-.3 0-.6-.1-.8-.4l-2.2-4.1c-.1-.1-.1-.2-.2-.2 0 0-.1 0-.1.2v10.4c0 .3-.2.5-.4.5h-3.3c-.2 0-.4-.1-.4-.4v-17.3c0-.5.4-.9.9-.9h2.4c.5 0 .9.2 1.1.7l3.8 7.1c.1.2.2.3.3.3.1 0 .2-.1.3-.3l3.8-7.1c.2-.4.6-.7 1.1-.7h2.4c.5 0 .9.4.9.9v17.4c-.1.3-.3.4-.5.4zM102.7 37.1c-4.1 0-6.3-2.5-6.3-6.5v-1.8c0-4 2.2-6.5 6.3-6.5s6.3 2.5 6.3 6.5v1.8c-.1 4-2.3 6.5-6.3 6.5zm2.2-8.3c0-2-.8-3.1-2.2-3.1-1.5 0-2.3 1-2.3 3.1v1.8c0 2 .8 3.1 2.3 3.1 1.5 0 2.2-1.1 2.2-3.1v-1.8zM123.3 36.9h-3c-.3 0-.5-.2-.5-.5v-8.4c0-1.8-.3-2.3-1.9-2.3-.7 0-1.5.4-2.4.8v9.9c0 .3-.2.5-.5.5h-3c-.3 0-.5-.2-.5-.5v-13.4c0-.3.2-.5.5-.5h2.8c.3 0 .5.2.5.5v.6c1.4-1 2.5-1.3 4.1-1.3 3.6 0 4.4 2.5 4.4 5.7v8.3c0 .3-.2.6-.5.6zM139.2 23.1l-4.7 6.3 4.6 7v.2c0 .2-.1.3-.3.3h-3.8c-.3 0-.4 0-.6-.4l-3.6-5.9v5.7c0 .3-.2.5-.5.5h-3c-.3 0-.5-.2-.5-.5v-18.1c0-.3.3-.5.5-.5h3c.3 0 .5.2.5.5v10.5l3.8-5.7c.2-.3.5-.4.7-.4h3.6c.2 0 .4.1.4.3 0 0 0 .1-.1.2zM153.2 31h-8c0 1.4.6 2.7 2.6 2.7 1.6 0 3.8-.1 4.8-.2h.1c.3 0 .5.1.5.4v1.9c0 .4-.1.6-.5.7-1.6.4-3 .6-5.1.6-3 0-6.3-1.6-6.3-6.4v-1.8c0-4 2.4-6.6 6.3-6.6 4.1 0 6.2 2.8 6.2 6.6v1.5c-.1.3-.3.6-.6.6zm-3.4-2.6c0-1.9-.9-2.8-2.3-2.8s-2.3 1-2.3 2.8v.1h4.6v-.1zM169.1 23.1l-4.2 14.7c-.8 2.7-1.8 4.1-5.5 4.1-.9 0-2.4-.2-3-.4-.3-.1-.5-.2-.5-.5v-2c0-.3.2-.5.5-.5h.1l3.1.2c.9 0 1.4-.3 1.7-1.3l.2-.8h-.5c-.9 0-1.7-.2-2.3-2.3l-3.3-11.3v-.2c0-.3.1-.4.5-.4h3.3c.2 0 .4.2.5.5l2.3 9.4c.1.4.2.5.3.5h.2l2.3-9.9c0-.3.3-.5.5-.5h3.3c.3 0 .5.2.5.5v.2zM182.4 36.8c-.8.2-2.8.3-4.1.3-3.2 0-6.1-.8-6.1-5.4v-12.9c0-.3.2-.5.5-.5h3.3c.3 0 .5.2.5.5v12.9c0 1.3.4 1.7 1.6 1.7h4.3c.3 0 .5.2.5.5v2.3c0 .4-.2.5-.5.6zM196.5 31h-8c0 1.4.6 2.7 2.6 2.7 1.6 0 3.8-.1 4.8-.2h.1c.3 0 .5.1.5.4v1.9c0 .4-.1.6-.5.7-1.6.4-3 .6-5.1.6-3 0-6.3-1.6-6.3-6.4v-1.8c0-4 2.4-6.6 6.3-6.6 4.1 0 6.2 2.8 6.2 6.6v1.5c0 .3-.2.6-.6.6zm-3.4-2.6c0-1.9-.9-2.8-2.3-2.8s-2.3 1-2.3 2.8v.1h4.6v-.1zM210.3 36.9h-2.8c-.3 0-.5-.2-.5-.5v-.4c-1 .7-2 1.1-3.5 1.1-2.2 0-4.3-1.1-4.3-4.3v-.2c0-2.9 1.9-4.2 6.2-4.2h1.4v-.9c0-1.4-.7-1.7-1.9-1.7-1.6 0-3.4.1-4.2.2h-.1c-.2 0-.5-.1-.5-.5v-2c0-.3.2-.5.5-.6.9-.2 2.7-.5 4.3-.5 3.6 0 5.9 1.5 5.9 5.1v8.9c0 .3-.3.5-.5.5zm-3.5-6.2h-1.4c-1.8 0-2.2.6-2.2 1.8v.2c0 1.1.5 1.3 1.6 1.3.8 0 1.5-.2 2.1-.5v-2.8zM221.3 25.7h-.2c-1.2 0-2.3.4-3.2.9v9.8c0 .3-.2.5-.5.5h-3c-.3 0-.5-.2-.5-.5v-13.4c0-.3.2-.5.5-.5h3c.3 0 .5.2.5.5v.5c.9-.8 2.2-1.2 3.4-1.2.3 0 .5.2.5.5v2.4c-.2.2-.3.5-.5.5zM235.5 36.9h-3c-.3 0-.5-.2-.5-.5v-8.4c0-1.8-.3-2.3-1.9-2.3-.7 0-1.5.4-2.4.8v9.9c0 .3-.2.5-.5.5h-3c-.3 0-.5-.2-.5-.5v-13.4c0-.3.2-.5.5-.5h2.8c.3 0 .5.2.5.5v.6c1.4-1 2.5-1.3 4.1-1.3 3.6 0 4.4 2.5 4.4 5.7v8.3c0 .3-.2.6-.5.6z"
       id="path6"
       style="fill:#003c55;fill-opacity:1" />
  </g>
  <path
     fill="#fff"
     d="M53.8 4.7c-3.1.3-3.3 1.9-3.8 4.8-.5-2.9-.8-4.6-3.8-4.7 2.2-.3 3.4-.5 3.8-4.8.6 4.4 1 4.5 3.8 4.7zM56.4 10c-1.9.2-2 1.1-2.3 2.9-.3-1.8-.5-2.8-2.3-2.9 1.4-.2 2.1-.3 2.3-2.9.4 2.7.6 2.8 2.3 2.9z"
     id="path8" />
  <circle
     fill="#003C55"
     cx="27.2"
     cy="29.4"
     r="27.2"
     id="circle10" />
  <g
     fill="#fff"
     id="g12">
    <path
       d="M32.5 10.2c-2.7-.9-5-1-5.6-1h-.2c-.6 0-2.8.1-5.4.9h-.1c-.2.1-.9.4-.7 1.4.3 1 1 3.6 1 3.8.1.3.5.7 1.7.4 1.7-.4 3.1-.4 3.4-.4.3 0 1.7 0 3.3.4h.2c1.1.2 1.6-.1 1.7-.4.1-.2.8-2.8 1-3.8.5-.8 0-1.1-.3-1.3zM19 11.8c-.1-.2-.6-.4-2 .4-4 2.5-7.4 7.2-6.4 15.9h-.1c-.9.1-1.6.6-2.1 1.6-1.2 2.3-.4 5.1 1.4 6.8.9.9 2 1.6 3.2 2.2.2.1 1.2.6 2 .9h.1c.5-.3.5-1 .3-1.7-.1-.1-.2-.2-.3-.2-.1-.1-.2-.1-.4-.2v.5c-1-.5-2-2.8-2-2.8l-.2 1c-1.1-1.4-.9-3.5-.9-3.5l1.3-3.7c-.3-3.9.9-6.5 2.1-7.9 1-1.6 2.4-2.8 3.9-3.6.1-.1.3-.2.5-.2l.3-.2c.2-.1.5-.3.6-.5.5-.9-1.1-4.6-1.3-4.8zm-8.4 23.3s-1.7-1.3-1.5-3.6c.1-1.5.9-2 1.6-2.2 0 .2.1.6.2 1.1-.3.1-.6.3-.8.8-.9 2.2.5 3.9.5 3.9zM45.4 29.7c-.5-1-1.2-1.5-2.1-1.6 0 0-.1 0-.1.1 1-9-2.7-13.7-6.8-16.2-1.1-.6-1.5-.4-1.6-.2-.2.2-1.9 4-1.4 4.8.3.5.9.6 1.4.9l.2.1c1.4.8 2.7 1.9 3.6 3.4 1.2 1.5 2.6 4 2.2 8.1l1.3 3.6s.2 2.1-.9 3.5l-.2-1s-1 2.3-2 2.8v-.7c-.2.2-.4.3-.6.4-.2.7-.2 1.4.3 1.7h.1c.8-.3 1.8-.8 2-.9 1.1-.6 2.2-1.3 3.2-2.2 1.7-1.5 2.5-4.3 1.4-6.6zm-2.3 5.4s1.4-1.7.5-3.8c-.2-.5-.6-.8-.9-.9.1-.5.2-.9.2-1.1.7.2 1.5.7 1.7 2.2.2 2.3-1.5 3.6-1.5 3.6z"
       id="path14" />
  </g>
  <path
     fill="#fff"
     d="M27 49.7c-9.6 0-17.7-5.7-20.6-13.5 2 9 10.5 15.8 20.6 15.8 10.2 0 18.6-6.8 20.6-15.8-2.8 7.9-11 13.5-20.6 13.5z"
     id="path16" />
  <path
     fill="#fff"
     d="M32.8 21.1c-2.5 0-4.7 1.4-5.8 3.5-1.1-2.1-3.3-3.5-5.8-3.5-3.7 0-6.6 3-6.6 6.6 0 3.3 2.4 6 5.6 6.5.3 3.5 3.3 6.2 6.9 6.2s6.5-2.7 6.9-6.2c3.1-.5 5.6-3.2 5.6-6.5-.1-3.6-3.1-6.6-6.8-6.6zm-12.2 8.4c-.8 0-1.5-.7-1.5-1.5s.7-1.5 1.5-1.5 1.5.7 1.5 1.5-.7 1.5-1.5 1.5zm5.1 1.3c.4 0 .7.3.7.7s-.3.7-.7.7c-.4 0-.7-.3-.7-.7s.3-.7.7-.7zm5 3.4s-1.4 1.7-3.8 1.7-3.9-1.5-3.8-1.7c.2-.2 1.4.4 3.8.4 2.3-.1 3.9-1.1 3.8-.4zm-2.4-3.4c.4 0 .7.3.7.7s-.3.7-.7.7c-.4 0-.7-.3-.7-.7s.4-.7.7-.7zm5.2-1.3c-.8 0-1.5-.7-1.5-1.5s.7-1.5 1.5-1.5 1.5.7 1.5 1.5-.7 1.5-1.5 1.5z"
     id="path18" />
</svg>
